HIERARCHY
ROOT Hips
{
	OFFSET 0.00000 0.00000 0.00000
	CHANNELS 6 Xposition Yposition Zposition Zrotation Yrotation Xrotation 
	JOINT LHipJoint
	{
		OFFSET 0 0 0
		CHANNELS 3 Zrotation Yrotation Xrotation
		JOINT LeftUpLeg
		{
			OFFSET 1.61328 -1.70571 0.84375
			CHANNELS 3 Zrotation Yrotation Xrotation
			JOINT LeftLeg
			{
				OFFSET 2.32400 -6.38513 0.00000
				CHANNELS 3 Zrotation Yrotation Xrotation
				JOINT LeftFoot
				{
					OFFSET 2.58843 -7.11166 0.00000
					CHANNELS 3 Zrotation Yrotation Xrotation
					JOINT LeftToeBase
					{
						OFFSET 0.17200 -0.47257 2.47970
						CHANNELS 3 Zrotation Yrotation Xrotation
						End Site
						{
							OFFSET 0.00000 -0.00000 1.26912
						}
					}
				}
			}
		}
	}
	JOINT RHipJoint
	{
		OFFSET 0 0 0
		CHANNELS 3 Zrotation Yrotation Xrotation
		JOINT RightUpLeg
		{
			OFFSET -1.49930 -1.70570 0.84375
			CHANNELS 3 Zrotation Yrotation Xrotation
			JOINT RightLeg
			{
				OFFSET -2.30458 -6.33178 0.00000
				CHANNELS 3 Zrotation Yrotation Xrotation
				JOINT RightFoot
				{
					OFFSET -2.62261 -7.20556 0.00000
					CHANNELS 3 Zrotation Yrotation Xrotation
					JOINT RightToeBase
					{
						OFFSET -0.18709 -0.51403 2.51340
						CHANNELS 3 Zrotation Yrotation Xrotation
						End Site
						{
							OFFSET -0.00000 -0.00000 1.28858
						}
					}
				}
			}
		}
	}
	JOINT LowerBack
	{
		OFFSET 0 0 0
		CHANNELS 3 Zrotation Yrotation Xrotation
		JOINT Spine
		{
			OFFSET -0.03798 2.19274 -0.19881
			CHANNELS 3 Zrotation Yrotation Xrotation
			JOINT Spine1
			{
				OFFSET -0.00024 2.19460 0.05248
				CHANNELS 3 Zrotation Yrotation Xrotation
				JOINT Neck
				{
					OFFSET 0 0 0
					CHANNELS 3 Zrotation Yrotation Xrotation
					JOINT Neck1
					{
						OFFSET -0.00746 1.82323 0.17286
						CHANNELS 3 Zrotation Yrotation Xrotation
						JOINT Head
						{
							OFFSET 0.11826 1.82121 -0.27841
							CHANNELS 3 Zrotation Yrotation Xrotation
							End Site
							{
								OFFSET 0.03496 1.85543 -0.11495
							}
						}
					}
				}
				JOINT LeftShoulder
				{
					OFFSET 0 0 0
					CHANNELS 3 Zrotation Yrotation Xrotation
					JOINT LeftArm
					{
						OFFSET 3.71926 0.78840 0.25473
						CHANNELS 3 Zrotation Yrotation Xrotation
						JOINT LeftForeArm
						{
							OFFSET 5.37587 -0.00000 0.00000
							CHANNELS 3 Zrotation Yrotation Xrotation
							JOINT LeftHand
							{
								OFFSET 3.35977 -0.00000 0.00000
								CHANNELS 3 Zrotation Yrotation Xrotation
								JOINT LeftFingerBase
								{
									OFFSET 0 0 0
									CHANNELS 3 Zrotation Yrotation Xrotation
									JOINT LeftHandIndex1
									{
										OFFSET 0.56186 -0.00000 0.00000
										CHANNELS 3 Zrotation Yrotation Xrotation
										End Site
										{
											OFFSET 0.45299 -0.00000 0.00000
										}
									}
								}
								JOINT LThumb
								{
									OFFSET 0 0 0
									CHANNELS 3 Zrotation Yrotation Xrotation
									End Site
									{
										OFFSET 0.45990 -0.00000 0.45990
									}
								}
							}
						}
					}
				}
				JOINT RightShoulder
				{
					OFFSET 0 0 0
					CHANNELS 3 Zrotation Yrotation Xrotation
					JOINT RightArm
					{
						OFFSET -3.65136 0.56074 0.01624
						CHANNELS 3 Zrotation Yrotation Xrotation
						JOINT RightForeArm
						{
							OFFSET -5.22819 -0.00000 0.00000
							CHANNELS 3 Zrotation Yrotation Xrotation
							JOINT RightHand
							{
								OFFSET -3.40764 -0.00000 0.00000
								CHANNELS 3 Zrotation Yrotation Xrotation
								JOINT RightFingerBase
								{
									OFFSET 0 0 0
									CHANNELS 3 Zrotation Yrotation Xrotation
									JOINT RightHandIndex1
									{
										OFFSET -0.58325 -0.00000 0.00000
										CHANNELS 3 Zrotation Yrotation Xrotation
										End Site
										{
											OFFSET -0.47024 -0.00000 0.00000
										}
									}
								}
								JOINT RThumb
								{
									OFFSET 0 0 0
									CHANNELS 3 Zrotation Yrotation Xrotation
									End Site
									{
										OFFSET -0.47742 -0.00000 0.47742
									}
								}
							}
						}
					}
				}
			}
		}
	}
}
MOTION
Frames: 12
Frame Time: .0083333
49.3383 16.4516 -6.7031 0 0 0 0 0 0 -21 0 0 0 0 0 0 0 0 0 0 0 0 0 0 21 0 0 0 0 0 0 0 0 0 0 0 0 0 0 0 0 0 0 0 0 0 0 -16 0 0 21 0 0 11 0 0 0 -8 0 0 0 0 0 0 0 0 0 0 0 0 0 0 0 0 0 0 0 0 8 0 0 0 0 0 0 0 0 0 0 0 0 0 0 0 0 0
49.3383 16.4516 -6.7031 -172.3110 -84.2502 169.4260 0.0000 0.0000 0.0000 -18.0716 4.2336 -4.0933 1.9575 8.7769 25.0999 1.0320 -1.1850 -18.8424 0.1375 -2.3897 -6.5840 0.0000 0.0000 0.0000 17.8661 9.0508 -8.7869 -4.3688 -12.6356 38.0192 -1.7669 2.7207 -24.4217 -0.5919 -4.9258 13.6970 -4.9959 -2.5343 -4.9322 1.1314 -3.1518 6.1637 3.5756 -1.9822 9.6742 -7.8093 -7.9381 -5.5796 6.2129 -14.8418 34.5358 1.6166 -7.5127 13.7064 -0.0000 -0.0000 0.0000 -79.4476 1.4865 41.3551 26.6656 -37.8584 -9.2932 -0.0000 0.0000 -22.4824 20.6699 19.6410 7.2271 -7.1250 0.0000 -0.0000 -7.7104 50.7002 -1.0886 -0.0000 -0.0000 0.0000 69.1272 -8.6818 43.6616 -41.3914 48.8730 -19.4809 0.0000 -0.0000 -20.2012 -28.6392 -0.5621 0.3070 7.1250 -0.0000 -0.0000 -1.6447 -30.6179 -0.5779
49.3412 16.4543 -6.7292 -171.2380 -84.1606 168.3740 0.0000 0.0000 0.0000 -17.8601 4.1147 -4.0839 1.9631 8.7888 25.1369 1.0326 -1.0064 -18.8990 0.1444 -2.4493 -6.7491 0.0000 0.0000 0.0000 18.1310 9.1591 -8.7014 -4.3423 -12.6025 37.8983 -1.7711 2.6774 -24.4608 -0.6096 -4.9975 13.9015 -4.8110 -2.5874 -4.8866 1.2366 -3.2551 6.2177 3.5702 -2.0277 9.7121 -7.8597 -7.9024 -5.6013 6.1524 -14.7455 34.4999 1.6160 -7.4812 13.6835 0.0000 -0.0000 0.0000 -79.3319 1.7068 41.6387 27.3712 -38.5309 -9.7295 -0.0000 0.0000 -22.5571 20.6476 19.5795 7.1972 -7.1250 0.0000 -0.0000 -7.7134 50.6327 -1.0762 0.0000 -0.0000 0.0000 68.7606 -8.8571 43.9009 -42.4903 49.4780 -20.3125 0.0000 -0.0000 -20.4015 -28.6235 -0.6618 0.3612 7.1250 -0.0000 -0.0000 -1.6337 -30.7315 -0.5696
49.3453 16.4583 -6.7553 -170.5810 -84.0792 167.7640 0.0000 0.0000 0.0000 -17.7090 3.9214 -4.0700 1.9675 8.7981 25.1657 1.0368 -0.8045 -18.9965 0.1433 -2.4398 -6.7227 0.0000 0.0000 0.0000 18.3364 9.2325 -8.6750 -4.3201 -12.5746 37.7964 -1.7701 2.6516 -24.4597 -0.6242 -5.0558 14.0677 -4.6374 -2.6000 -4.8088 1.3001 -3.2995 6.2430 3.5370 -2.0411 9.6903 -7.8152 -7.8959 -5.5963 6.0810 -14.7086 34.4592 1.5883 -7.4666 13.6489 0.0000 -0.0000 0.0000 -79.0980 1.9796 42.0614 28.1825 -39.2837 -10.2390 -0.0000 0.0000 -22.7051 21.4140 17.4709 6.7151 -7.1250 0.0000 -0.0000 -6.3814 48.5545 -0.5616 0.0000 -0.0000 0.0000 68.5183 -9.0617 44.0407 -43.5584 50.0424 -21.1278 0.0000 -0.0000 -20.5891 -28.5830 -0.6446 0.3512 7.1250 -0.0000 -0.0000 -1.6013 -30.7116 -0.5591
49.3505 16.4619 -6.7801 -170.2790 -84.0108 167.5230 0.0000 0.0000 0.0000 -17.6070 3.7511 -4.1125 1.9734 8.8104 25.2039 1.0350 -0.5385 -19.0616 0.1549 -2.5363 -6.9902 0.0000 0.0000 0.0000 18.4854 9.2946 -8.6884 -4.2975 -12.5461 37.6924 -1.7671 2.6029 -24.4491 -0.6304 -5.0805 14.1383 -4.4736 -2.6077 -4.7376 1.3472 -3.3341 6.2655 3.4931 -2.0495 9.6676 -7.8136 -7.8932 -5.6154 6.0742 -14.7015 34.4543 1.5857 -7.4623 13.6492 -0.0000 0.0000 0.0000 -78.8679 2.1655 42.5065 28.9297 -39.9582 -10.7156 -0.0000 0.0000 -22.8842 21.2773 17.5711 6.7051 -7.1250 0.0000 -0.0000 -6.5380 48.6389 -0.5891 -0.0000 0.0000 0.0000 68.2682 -9.2819 44.1966 -44.6608 50.6012 -21.9763 0.0000 -0.0000 -20.6137 -28.6384 -0.6819 0.3724 7.1250 -0.0000 -0.0000 -1.6458 -30.7544 -0.5730
49.3562 16.4658 -6.8063 -169.3400 -83.9224 166.6470 0.0000 0.0000 0.0000 -17.4139 3.5796 -4.1527 1.9794 8.8230 25.2431 1.0340 -0.3151 -19.1235 0.1605 -2.5810 -7.1144 0.0000 0.0000 0.0000 18.7320 9.4013 -8.6830 -4.2751 -12.5178 37.5893 -1.7672 2.5235 -24.4674 -0.6393 -5.1152 14.2375 -4.2688 -2.6221 -4.6639 1.4257 -3.3846 6.2896 3.4578 -2.0644 9.6460 -7.8070 -7.8820 -5.6258 6.0447 -14.6692 34.4291 1.5784 -7.4492 13.6331 0.0000 -0.0000 0.0000 -78.6506 2.3738 42.9062 29.7121 -40.6454 -11.2216 -0.0000 0.0000 -23.0376 21.3337 17.3378 6.6387 -7.1250 0.0000 -0.0000 -6.4247 48.4028 -0.5414 0.0000 -0.0000 0.0000 67.9918 -9.4847 44.3783 -45.7919 51.1506 -22.8539 0.0000 -0.0000 -20.6587 -28.6335 -0.6623 0.3616 7.1250 -0.0000 -0.0000 -1.6417 -30.7320 -0.5724
49.3618 16.4698 -6.8325 -168.5030 -83.8436 165.8800 0.0000 0.0000 0.0000 -17.2326 3.4088 -4.1954 1.9835 8.8316 25.2701 1.0320 -0.0966 -19.1776 0.1657 -2.6226 -7.2297 0.0000 0.0000 0.0000 18.9629 9.4988 -8.6914 -4.2540 -12.4910 37.4917 -1.7675 2.4427 -24.4879 -0.6466 -5.1439 14.3193 -4.0742 -2.6372 -4.5976 1.5018 -3.4341 6.3110 3.4253 -2.0794 9.6263 -7.7980 -7.8724 -5.6374 6.0171 -14.6415 34.4077 1.5706 -7.4375 13.6195 -0.0000 0.0000 0.0000 -78.4284 2.5725 43.3072 30.5065 -41.3236 -11.7427 -0.0000 0.0000 -23.2000 21.2839 17.4106 6.6486 -7.1250 0.0000 -0.0000 -6.4907 48.4718 -0.5580 -0.0000 0.0000 0.0000 67.7107 -9.6907 44.5736 -46.9515 51.6895 -23.7604 0.0000 -0.0000 -20.6480 -28.6042 -0.5913 0.3224 7.1250 -0.0000 -0.0000 -1.6173 -30.6511 -0.5670
49.3667 16.4739 -6.8585 -167.8650 -83.7815 165.3190 0.0000 0.0000 0.0000 -17.0768 3.2497 -4.2348 1.9839 8.8325 25.2728 1.0285 0.1119 -19.2163 0.1713 -2.6666 -7.3518 0.0000 0.0000 0.0000 19.1612 9.5782 -8.7121 -4.2339 -12.4653 37.3985 -1.7680 2.3711 -24.5078 -0.6529 -5.1686 14.3901 -3.8995 -2.6577 -4.5460 1.5732 -3.4878 6.3292 3.3981 -2.0976 9.6134 -7.7994 -7.8608 -5.6405 5.9968 -14.6124 34.3856 1.5679 -7.4262 13.6054 -0.0000 0.0000 0.0000 -78.2120 2.7616 43.6956 31.3037 -41.9849 -12.2725 -0.0000 0.0000 -23.3617 21.0970 17.8288 6.7368 -7.1250 0.0000 -0.0000 -6.7784 48.8813 -0.6516 -0.0000 0.0000 0.0000 67.4157 -9.9013 44.7932 -48.1448 52.2193 -24.7002 0.0000 -0.0000 -20.5851 -28.5423 -0.4694 0.2553 7.1250 -0.0000 -0.0000 -1.5665 -30.5120 -0.5544
49.3692 16.4780 -6.8840 -167.7500 -83.7561 165.2750 0.0000 0.0000 0.0000 -16.9927 3.1130 -4.2400 1.9771 8.8181 25.2280 1.0237 0.2991 -19.2385 0.1766 -2.7067 -7.4631 0.0000 0.0000 0.0000 19.2756 9.6050 -8.7407 -4.2170 -12.4437 37.3202 -1.7692 2.3352 -24.5246 -0.6571 -5.1847 14.4362 -3.7801 -2.6863 -4.5201 1.6271 -3.5447 6.3495 3.3814 -2.1206 9.6210 -7.8072 -7.8496 -5.6349 5.9783 -14.5847 34.3635 1.5673 -7.4164 13.5903 0.0000 -0.0000 0.0000 -78.0018 2.9367 44.0745 32.0974 -42.6247 -12.8068 -0.0000 0.0000 -23.5156 20.8549 18.3550 6.8409 -7.1250 0.0000 -0.0000 -7.1544 49.3931 -0.7786 0.0000 -0.0000 0.0000 67.1122 -10.1191 45.0269 -49.3709 52.7386 -25.6726 0.0000 -0.0000 -20.4770 -28.4440 -0.3022 0.1637 7.1250 -0.0000 -0.0000 -1.4862 -30.3217 -0.5327
49.3697 16.4819 -6.9089 -168.1390 -83.7699 165.7300 0.0000 0.0000 0.0000 -16.9798 2.9962 -4.2100 1.9625 8.7875 25.1328 1.0173 0.4704 -19.2412 0.1822 -2.7491 -7.5809 0.0000 0.0000 0.0000 19.3076 9.5802 -8.7785 -4.2036 -12.4265 37.2581 -1.7709 2.3326 -24.5376 -0.6584 -5.1897 14.4503 -3.7133 -2.7211 -4.5159 1.6618 -3.6024 6.3709 3.3728 -2.1470 9.6456 -7.8198 -7.8398 -5.6235 5.9636 -14.5611 34.3450 1.5684 -7.4090 13.5768 -0.0000 -0.0000 0.0000 -77.7988 3.1007 44.4392 32.8895 -43.2450 -13.3463 -0.0000 0.0000 -23.6484 20.6069 18.8460 6.9253 -7.1250 0.0000 -0.0000 -7.5343 49.8649 -0.9082 -0.0000 -0.0000 0.0000 66.8057 -10.3498 45.2670 -50.6384 53.2497 -26.6848 0.0000 -0.0000 -20.3416 -28.3208 -0.1122 0.0605 7.1250 -0.0000 -0.0000 -1.3859 -30.1058 -0.5039
49.3690 16.4856 -6.9335 -168.9550 -83.8137 166.6110 0.0000 0.0000 0.0000 -17.0246 2.8988 -4.1604 1.9421 8.7444 24.9989 1.0095 0.6234 -19.2247 0.1878 -2.7911 -7.6977 0.0000 0.0000 0.0000 19.2706 9.5140 -8.8315 -4.1935 -12.4135 37.2109 -1.7722 2.3578 -24.5414 -0.6576 -5.1868 14.4421 -3.6912 -2.7606 -4.5239 1.6818 -3.6605 6.3905 3.3728 -2.1760 9.6776 -7.8365 -7.8312 -5.6129 5.9465 -14.5401 34.3358 1.5688 -7.4035 13.5681 -0.0000 -0.0000 0.0000 -77.6046 3.2488 44.7885 33.6697 -43.8385 -13.8838 -0.0000 0.0000 -23.7568 20.3914 19.1980 6.9690 -7.1250 0.0000 -0.0000 -7.8480 50.1953 -1.0104 -0.0000 -0.0000 0.0000 66.4979 -10.5896 45.5108 -51.9435 53.7499 -27.7340 0.0000 -0.0000 -20.1974 -28.1776 0.0887 -0.0475 7.1250 -0.0000 -0.0000 -1.2700 -29.8779 -0.4687
49.3675 16.4890 -6.9582 -169.9940 -83.8741 167.7050 0.0000 0.0000 0.0000 -17.0948 2.8141 -4.0942 1.9193 8.6959 24.8487 1.0009 0.7592 -19.1960 0.1933 -2.8311 -7.8090 0.0000 0.0000 0.0000 19.2034 9.4277 -8.8819 -4.1856 -12.4034 37.1744 -1.7741 2.3932 -24.5463 -0.6550 -5.1765 14.4127 -3.6963 -2.8020 -4.5321 1.6945 -3.7181 6.4124 3.3802 -2.2065 9.7139 -7.8520 -7.8243 -5.6044 5.9261 -14.5217 34.3325 1.5670 -7.3993 13.5623 -0.0000 -0.0000 0.0000 -77.4189 3.3798 45.1177 34.4405 -44.4085 -14.4205 -0.0000 0.0000 -23.8372 20.2295 19.3725 6.9692 -7.1250 0.0000 -0.0000 -8.0590 50.3498 -1.0687 -0.0000 -0.0000 0.0000 66.1925 -10.8345 45.7549 -53.2872 54.2382 -28.8210 0.0000 -0.0000 -20.0610 -28.0150 0.2862 -0.1522 7.1250 -0.0000 -0.0000 -1.1391 -29.6547 -0.4264
